<?xml version="1.0" encoding="utf-8"?>
<!-- Generator: Adobe Illustrator 23.0.2, SVG Export Plug-In . SVG Version: 6.00 Build 0)  -->
<svg version="1.1" id="Layer_1" xmlns="http://www.w3.org/2000/svg" xmlns:xlink="http://www.w3.org/1999/xlink" x="0px" y="0px"
	 viewBox="0 0 188.9 116.9" style="enable-background:new 0 0 188.9 116.9;" xml:space="preserve">
<style type="text/css">
	.st0{fill:#44C2E4;}
</style>
<path id="XMLID_68_" class="st0" d="M35.4,116.9h118c19.5,0,35.4-15.8,35.4-35.2c0-11.1-5.1-21.3-13.9-28c-1-0.7-1.6-1.7-2-2.9
	c-5.1-17.6-21.5-29.9-39.8-29.9c-3.4,0-6.7,0.4-10,1.2c-2.3,0.6-4.6-0.3-5.9-2.2C108.7,7.4,94.6,0,79.5,0C68.1,0,57.1,4.3,48.6,12
	C40.2,19.7,35,30.1,33.9,41.4c-0.2,2-1.4,3.7-3.2,4.5c-0.6,0.3-1.1,0.5-1.6,0.8c-0.5,0.3-1,0.4-1.5,0.6C19.9,49,12.9,53.4,7.9,59.5
	C2.7,65.8,0,73.5,0,81.7C0,101.1,15.9,116.9,35.4,116.9z"/>
</svg>
