<?xml version="1.0" encoding="utf-8"?>
<!-- Generator: Adobe Illustrator 23.0.2, SVG Export Plug-In . SVG Version: 6.00 Build 0)  -->
<svg version="1.1" id="Layer_1" xmlns="http://www.w3.org/2000/svg" xmlns:xlink="http://www.w3.org/1999/xlink" x="0px" y="0px"
	 viewBox="0 0 221 141.9" style="enable-background:new 0 0 221 141.9;" xml:space="preserve">
<style type="text/css">
	.st0{fill:#44C2E4;}
	.st1{fill:#3591A6;}
</style>
<path id="XMLID_79_" class="st0" d="M81.8,89.4c0-21.9,19.8-39.7,44.2-39.7c5.3,0,10.4,0.8,15.2,2.4c5-5.1,11.6-8.9,18.8-10.8
	c-6.4-13-19.9-21.6-34.7-21.6c-3.2,0-6.3,0.4-9.4,1.1c-2.3,0.6-4.6-0.3-5.9-2.2C101.9,6.9,88.7,0,74.6,0c-10.7,0-21,4-28.9,11.2
	C37.9,18.4,33,28.2,32,38.7c-0.2,1.9-1.4,3.7-3.2,4.5c-0.5,0.2-1,0.5-1.5,0.8c-0.5,0.3-1,0.4-1.5,0.6C18.6,46.2,12,50.2,7.4,56
	C2.5,61.9,0,69,0,76.6c0,18.1,14.8,32.9,33.1,32.9h39.7c1.1-6.8,4.2-13.1,9-18.5C81.8,90.5,81.8,89.9,81.8,89.4z"/>
<path id="XMLID_39_" class="st1" d="M202,90.3c-2.9-1-4.4-4.2-3.3-7.1c0.9-2.4,1.3-4.9,1.3-7.4c0-10.6-7.7-19.6-18.5-23.2
	c-3.2-1.1-6.6-1.6-10.2-1.6c-1.9,0-3.8,0.2-5.6,0.5c-7.4,1.3-14.1,5-18.4,10.6c-1.6,2-4.3,2.7-6.6,1.7c-4.6-2-9.5-3-14.7-3
	c-18.2,0-33,12.8-33,28.6c0,1,0.1,2,0.2,3.1c0.2,1.7-0.4,3.5-1.7,4.7c-3.7,3.5-6.2,7.8-7.3,12.4c-0.4,1.8-0.7,3.6-0.7,5.5
	c0,1.9,0.2,3.8,0.7,5.6c3,12.1,15.5,21.2,30.3,21.2H190c17.1,0,31-12,31-26.8C221,104.2,213.5,94.5,202,90.3z"/>
</svg>
