<?xml version="1.0" encoding="utf-8"?>
<!-- Generator: Adobe Illustrator 23.0.2, SVG Export Plug-In . SVG Version: 6.00 Build 0)  -->
<svg version="1.1" id="Layer_1" xmlns="http://www.w3.org/2000/svg" xmlns:xlink="http://www.w3.org/1999/xlink" x="0px" y="0px"
	 viewBox="0 0 188.9 171.8" style="enable-background:new 0 0 188.9 171.8;" xml:space="preserve">
<style type="text/css">
	.st0{fill:#44C2E4;}
	.st1{fill:#FFBE30;}
</style>
<path id="XMLID_69_" class="st0" d="M56.6,105.5l24.8-73h31.3L94.5,81.8h37.8l-23.1,35.2h44.2c19.5,0,35.4-15.8,35.4-35.2
	c0-11.1-5.1-21.3-13.9-28c-1-0.7-1.6-1.7-2-2.9c-5.1-17.6-21.5-29.9-39.8-29.9c-3.4,0-6.7,0.4-10,1.2c-2.3,0.6-4.6-0.3-5.9-2.2
	C108.7,7.4,94.6,0,79.5,0C68.1,0,57.1,4.3,48.6,12C40.2,19.7,35,30.1,33.9,41.4c-0.2,2-1.4,3.7-3.2,4.5c-0.5,0.3-1.1,0.5-1.6,0.8
	c-0.5,0.3-1,0.4-1.5,0.6C19.9,49,12.9,53.4,7.9,59.5C2.7,65.8,0,73.5,0,81.7c0,19.4,15.9,35.2,35.4,35.2H87l2.9-11.5H56.6z"/>
<polygon id="XMLID_40_" class="st1" points="94.5,81.8 112.7,32.5 81.4,32.5 56.6,105.5 89.9,105.5 87,116.9 84.2,128.1 73.3,171.8 
	101.9,128.1 109.2,116.9 132.3,81.8 "/>
</svg>
