<?xml version="1.0" encoding="utf-8"?>
<!-- Generator: Adobe Illustrator 23.0.2, SVG Export Plug-In . SVG Version: 6.00 Build 0)  -->
<svg version="1.1" id="Layer_1" xmlns="http://www.w3.org/2000/svg" xmlns:xlink="http://www.w3.org/1999/xlink" x="0px" y="0px"
	 viewBox="0 0 188.9 171.8" style="enable-background:new 0 0 188.9 171.8;" xml:space="preserve">
<style type="text/css">
	.st0{fill:#3591A6;}
	.st1{fill:#44C2E4;}
</style>
<path id="XMLID_70_" class="st0" d="M35.1,119.4h118c19.5,0,35.4-15.8,35.4-35.2c0-11.1-5.1-21.3-13.9-28c-1-0.7-1.6-1.7-2-2.9
	c-5.1-17.6-21.5-29.9-39.8-29.9c-3.4,0-6.7,0.4-10,1.2c-2.3,0.6-4.6-0.3-5.9-2.2C108.4,9.9,94.2,2.5,79.2,2.5
	c-11.5,0-22.4,4.3-30.9,12c-8.4,7.7-13.6,18.1-14.7,29.4c-0.2,1.9-1.4,3.7-3.2,4.5c-0.6,0.3-1.1,0.5-1.6,0.8c-0.5,0.3-1,0.4-1.5,0.6
	C19.6,51.5,12.6,55.8,7.5,62c-5.2,6.3-7.9,14-7.9,22.2C-0.3,103.6,15.6,119.4,35.1,119.4z"/>
<path id="XMLID_63_" class="st1" d="M41.3,137.3c-2.9,0.9-4.6,4-3.7,7l6.7,21.9c0.7,2.4,2.9,3.9,5.3,3.9c0.5,0,1.1-0.1,1.6-0.2
	c2.9-0.9,4.6-4,3.7-7L48.3,141C47.4,138,44.3,136.4,41.3,137.3z"/>
<path id="XMLID_62_" class="st1" d="M88,137.3c-2.9,0.9-4.6,4-3.7,7l6.7,21.9c0.7,2.4,2.9,3.9,5.3,3.9c0.5,0,1.1-0.1,1.6-0.2
	c2.9-0.9,4.6-4,3.7-7L94.9,141C94,138,90.9,136.4,88,137.3z"/>
<path id="XMLID_61_" class="st1" d="M134.6,137.3c-2.9,0.9-4.6,4-3.7,7l6.7,21.9c0.7,2.4,2.9,3.9,5.3,3.9c0.5,0,1.1-0.1,1.6-0.2
	c2.9-0.9,4.6-4,3.7-7l-6.7-21.9C140.7,138,137.5,136.4,134.6,137.3z"/>
</svg>
