<?xml version="1.0" encoding="utf-8"?>
<!-- Generator: Adobe Illustrator 23.0.2, SVG Export Plug-In . SVG Version: 6.00 Build 0)  -->
<svg version="1.1" id="Layer_1" xmlns="http://www.w3.org/2000/svg" xmlns:xlink="http://www.w3.org/1999/xlink" x="0px" y="0px"
	 viewBox="0 0 188.9 177.5" style="enable-background:new 0 0 188.9 177.5;" xml:space="preserve">
<style type="text/css">
	.st0{fill:#44C2E4;}
</style>
<path id="XMLID_75_" class="st0" d="M175,53.7c-1-0.7-1.6-1.7-2-2.9c-5.1-17.6-21.5-29.9-39.8-29.9c-3.4,0-6.7,0.4-10,1.2
	c-2.2,0.6-4.6-0.3-5.9-2.2C108.7,7.4,94.6,0,79.5,0C68.1,0,57.1,4.3,48.6,12C40.2,19.7,35,30.1,33.9,41.4c-0.2,2-1.4,3.7-3.2,4.5
	c-0.6,0.3-1.1,0.5-1.6,0.8c-0.5,0.3-1,0.4-1.5,0.6C19.9,49,12.9,53.4,7.9,59.5C2.7,65.8,0,73.5,0,81.7c0,19.4,15.9,35.2,35.4,35.2
	h118c19.5,0,35.4-15.8,35.4-35.2C188.9,70.6,183.8,60.4,175,53.7z"/>
<path id="XMLID_10_" class="st0" d="M31.7,140.1c-2.7,0-5,2.2-5,5v7.7l-8.1-2.2c-2.7-0.7-5.4,0.8-6.1,3.5c-0.7,2.7,0.8,5.4,3.5,6.1
	l7.8,2.1l-4.7,7.3c-1.5,2.3-0.8,5.4,1.5,6.9c0.8,0.5,1.8,0.8,2.7,0.8c1.6,0,3.2-0.8,4.2-2.3l4.3-6.7l4.7,7c1,1.4,2.5,2.2,4.1,2.2
	c1,0,1.9-0.3,2.8-0.8c2.3-1.5,2.9-4.6,1.4-6.9l-5-7.5l7.7-2.1c2.7-0.7,4.2-3.4,3.5-6.1c-0.7-2.7-3.4-4.2-6.1-3.5l-8.1,2.2v-7.7
	C36.7,142.4,34.5,140.1,31.7,140.1z"/>
<path id="XMLID_9_" class="st0" d="M94.5,140.1c-2.7,0-5,2.2-5,5v7.7l-8.1-2.2c-2.7-0.7-5.4,0.8-6.1,3.5c-0.7,2.7,0.8,5.4,3.5,6.1
	l7.8,2.1l-4.7,7.3c-1.5,2.3-0.8,5.4,1.5,6.9c0.8,0.5,1.8,0.8,2.7,0.8c1.6,0,3.2-0.8,4.2-2.3l4.3-6.7l4.7,7c1,1.4,2.5,2.2,4.1,2.2
	c1,0,1.9-0.3,2.8-0.8c2.3-1.5,2.9-4.6,1.4-6.9l-5-7.5l7.7-2.1c2.7-0.7,4.2-3.4,3.5-6.1c-0.7-2.7-3.4-4.2-6.1-3.5l-8.1,2.2v-7.7
	C99.4,142.4,97.2,140.1,94.5,140.1z"/>
<path id="XMLID_8_" class="st0" d="M157.2,140.1c-2.7,0-5,2.2-5,5v7.7l-8.1-2.2c-2.7-0.7-5.4,0.8-6.1,3.5c-0.7,2.7,0.8,5.4,3.5,6.1
	l7.8,2.1l-4.7,7.3c-1.5,2.3-0.8,5.4,1.5,6.9c0.8,0.5,1.8,0.8,2.7,0.8c1.6,0,3.2-0.8,4.2-2.3l4.3-6.7l4.7,7c1,1.4,2.5,2.2,4.1,2.2
	c1,0,1.9-0.3,2.8-0.8c2.3-1.5,2.9-4.6,1.4-6.9l-5-7.5l7.7-2.1c2.7-0.7,4.2-3.4,3.5-6.1c-0.7-2.7-3.4-4.2-6.1-3.5l-8.1,2.2v-7.7
	C162.2,142.4,159.9,140.1,157.2,140.1z"/>
</svg>
