<?xml version="1.0" encoding="utf-8"?>
<!-- Generator: Adobe Illustrator 23.0.2, SVG Export Plug-In . SVG Version: 6.00 Build 0)  -->
<svg version="1.1" id="Layer_1" xmlns="http://www.w3.org/2000/svg" xmlns:xlink="http://www.w3.org/1999/xlink" x="0px" y="0px"
	 viewBox="0 0 230.4 160.2" style="enable-background:new 0 0 230.4 160.2;" xml:space="preserve">
<style type="text/css">
	.st0{fill:#44C2E4;}
	.st1{fill:#FFBE30;}
</style>
<path id="XMLID_67_" class="st0" d="M216.5,97c-1-0.7-1.6-1.7-2-2.9c-5.1-17.6-21.5-29.9-39.8-29.9c-3.4,0-6.7,0.4-10,1.2
	c-2.3,0.6-4.6-0.3-5.9-2.2c-8.6-12.4-22.7-19.9-37.7-19.9c-11.5,0-22.4,4.3-30.9,12c-8.4,7.7-13.6,18.1-14.7,29.4
	c-0.2,2-1.4,3.7-3.2,4.5c-0.6,0.3-1.1,0.5-1.7,0.8c-0.5,0.3-1,0.4-1.5,0.6c-7.7,1.7-14.7,6.1-19.8,12.2c-5.2,6.3-7.9,14-7.9,22.2
	c0,19.4,15.9,35.2,35.4,35.2h118c19.5,0,35.4-15.8,35.4-35.2C230.4,113.9,225.3,103.7,216.5,97z"/>
<path id="XMLID_65_" class="st1" d="M41.7,69.4c0,7,2.6,13.5,7.2,18.6c4.7-3.6,10.2-6.2,15.9-7.8c2-12.7,8.3-24.4,17.8-33.1
	c0.5-0.4,0.9-0.8,1.4-1.2c-4.3-2.7-9.3-4.1-14.6-4.1C54.1,41.7,41.7,54.1,41.7,69.4z"/>
<path id="XMLID_55_" class="st1" d="M69.4,26.8c3.1,0,5.6-2.5,5.6-5.6V5.6C75,2.5,72.5,0,69.4,0c-3.1,0-5.6,2.5-5.6,5.6v15.7
	C63.8,24.3,66.3,26.8,69.4,26.8z"/>
<path id="XMLID_54_" class="st1" d="M40.5,30.5c1,1.8,2.9,2.8,4.8,2.8c0.9,0,1.9-0.2,2.8-0.7c2.7-1.5,3.6-4.9,2-7.6l-7.8-13.6
	c-1.5-2.7-4.9-3.6-7.6-2c-2.7,1.5-3.6,4.9-2,7.6L40.5,30.5z"/>
<path id="XMLID_53_" class="st1" d="M11.3,42.3l13.6,7.8c0.9,0.5,1.8,0.7,2.8,0.7c1.9,0,3.8-1,4.8-2.8c1.5-2.7,0.6-6.1-2-7.6
	l-13.6-7.8c-2.7-1.5-6.1-0.6-7.6,2C7.8,37.4,8.7,40.8,11.3,42.3z"/>
<path id="XMLID_52_" class="st1" d="M5.6,75h15.7c3.1,0,5.6-2.5,5.6-5.6c0-3.1-2.5-5.6-5.6-5.6H5.6c-3.1,0-5.6,2.5-5.6,5.6
	C0,72.5,2.5,75,5.6,75z"/>
<path id="XMLID_51_" class="st1" d="M32.5,90.7c-1.5-2.7-4.9-3.6-7.6-2l-13.6,7.8c-2.7,1.5-3.6,4.9-2,7.6c1,1.8,2.9,2.8,4.8,2.8
	c0.9,0,1.9-0.2,2.8-0.7l13.6-7.8C33.1,96.8,34.1,93.3,32.5,90.7z"/>
<path id="XMLID_50_" class="st1" d="M90.7,32.5c0.9,0.5,1.8,0.7,2.8,0.7c1.9,0,3.8-1,4.8-2.8l7.8-13.6c1.5-2.7,0.6-6.1-2-7.6
	c-2.7-1.5-6.1-0.6-7.6,2l-7.8,13.6C87.1,27.6,88,31,90.7,32.5z"/>
</svg>
