<svg id="Layer_1" data-name="Layer 1" xmlns="http://www.w3.org/2000/svg" viewBox="0 0 230.4 160.2"><defs><style>.cls-1{fill:#44c2e4;}.cls-2{fill:#ffbe30;}</style></defs><title>sun_cloudy</title><path class="cls-1" d="M216.5,97a5.5,5.5,0,0,1-2-2.9,41.7,41.7,0,0,0-39.8-29.9,42.1,42.1,0,0,0-10,1.2,5.4,5.4,0,0,1-5.9-2.2A45.8,45.8,0,0,0,75.5,84.7a5.5,5.5,0,0,1-3.2,4.5l-1.7.8-1.5.6a36.2,36.2,0,0,0-19.8,12.2A34.5,34.5,0,0,0,41.4,125a35.4,35.4,0,0,0,35.4,35.2h118A35.4,35.4,0,0,0,230.2,125,34.2,34.2,0,0,0,216.5,97Z"/><path class="cls-2" d="M41.7,69.4A27.6,27.6,0,0,0,48.9,88a47.2,47.2,0,0,1,15.9-7.8A57,57,0,0,1,82.6,47.1L84,45.9a27.2,27.2,0,0,0-14.6-4.1A27.5,27.5,0,0,0,41.7,69.4Z"/><path class="cls-2" d="M69.4,26.8A5.6,5.6,0,0,0,75,21.2V5.6a5.6,5.6,0,1,0-11.2,0V21.3A5.6,5.6,0,0,0,69.4,26.8Z"/><path class="cls-2" d="M40.5,30.5a5.5,5.5,0,0,0,4.8,2.8,5.8,5.8,0,0,0,2.8-.7,5.4,5.4,0,0,0,2-7.6L42.3,11.4A5.6,5.6,0,0,0,32.7,17Z"/><path class="cls-2" d="M11.3,42.3l13.6,7.8A5.6,5.6,0,0,0,32.5,48a5.6,5.6,0,0,0-2-7.6L16.9,32.6a5.6,5.6,0,0,0-7.6,2A5.7,5.7,0,0,0,11.3,42.3Z"/><path class="cls-2" d="M5.6,75H21.3a5.6,5.6,0,0,0,0-11.2H5.6A5.6,5.6,0,0,0,5.6,75Z"/><path class="cls-2" d="M32.5,90.7a5.4,5.4,0,0,0-7.6-2L11.3,96.5a5.4,5.4,0,0,0-2,7.6,5.5,5.5,0,0,0,4.8,2.8,5.8,5.8,0,0,0,2.8-.7l13.6-7.8A5.7,5.7,0,0,0,32.5,90.7Z"/><path class="cls-2" d="M90.7,32.5a5.6,5.6,0,0,0,7.6-2.1l7.8-13.6a5.6,5.6,0,0,0-9.6-5.6L88.7,24.8A5.5,5.5,0,0,0,90.7,32.5Z"/></svg>